<?xml version="1.0" encoding="UTF-8" standalone="no"?>
<!-- Created with Inkscape (http://www.inkscape.org/) -->

<svg
   xmlns:dc="http://purl.org/dc/elements/1.1/"
   xmlns:cc="http://creativecommons.org/ns#"
   xmlns:rdf="http://www.w3.org/1999/02/22-rdf-syntax-ns#"
   xmlns:svg="http://www.w3.org/2000/svg"
   xmlns="http://www.w3.org/2000/svg"
   xmlns:sodipodi="http://sodipodi.sourceforge.net/DTD/sodipodi-0.dtd"
   xmlns:inkscape="http://www.inkscape.org/namespaces/inkscape"
   width="480.48828"
   height="273.69266"
   id="svg2"
   version="1.1"
   inkscape:version="0.48.2 r9819"
   inkscape:export-filename="E:\Semestr XI\Projekt obliczeniowy\TeX\Rysunki\siatka.png"
   inkscape:export-xdpi="90"
   inkscape:export-ydpi="90"
   sodipodi:docname="siatka.svg">
  <defs
     id="defs4" />
  <sodipodi:namedview
     id="base"
     pagecolor="#ffffff"
     bordercolor="#666666"
     borderopacity="1.0"
     inkscape:pageopacity="0.0"
     inkscape:pageshadow="2"
     inkscape:zoom="2.08"
     inkscape:cx="197.60607"
     inkscape:cy="124.60303"
     inkscape:document-units="px"
     inkscape:current-layer="layer5"
     showgrid="false"
     inkscape:window-width="1372"
     inkscape:window-height="878"
     inkscape:window-x="-32000"
     inkscape:window-y="-32000"
     inkscape:window-maximized="1"
     fit-margin-top="0"
     fit-margin-left="0"
     fit-margin-right="0"
     fit-margin-bottom="0" />
  <metadata
     id="metadata7">
    <rdf:RDF>
      <cc:Work
         rdf:about="">
        <dc:format>image/svg+xml</dc:format>
        <dc:type
           rdf:resource="http://purl.org/dc/dcmitype/StillImage" />
        <dc:title></dc:title>
      </cc:Work>
    </rdf:RDF>
  </metadata>
  <g
     inkscape:groupmode="layer"
     id="layer4"
     inkscape:label="Layer"
     sodipodi:insensitive="true" />
  <g
     inkscape:groupmode="layer"
     id="layer3"
     inkscape:label="cień"
     style="display:inline"
     transform="translate(-50,-524.66952)"
     sodipodi:insensitive="true">
    <path
       style="opacity:0.50442475;fill:#008000;fill-opacity:1;stroke:none"
       d="m 137.77012,774.3636 c -7.23204,-2.33817 -5.18974,-1.38068 -7.7062,-5.50846 -1.9909,-3.26568 -2.46068,-8.49026 1.53472,-19.03486 4.36787,-11.52762 6.87501,-25.28996 2.97456,-29.49383 -2.59542,-2.79733 -11.55024,-5.57999 -19.70069,-3.48286 l -13.05308,3.35861 3.3452,-18.36736 -0.8388,-19.62256 12.71693,2.31068 c 10.04447,1.8251 15.46773,-0.49896 17.90199,-5.52747 1.96616,-4.06155 -0.0452,-11.71773 -3.02576,-23.1119 -2.79851,-10.69808 -2.73632,-13.76031 -1.83182,-17.1194 2.03605,-7.5613 11.59657,-13.11126 23.80555,-11.21318 9.61826,1.49532 13.97535,6.18448 16.01374,11.52194 1.05146,2.75318 1.095,3.74065 0.34587,7.8424 -0.47137,2.58094 -1.35283,6.85686 -2.47018,10.5248 -3.8216,12.54527 -3.61272,23.98667 -0.42246,28.26722 3.90345,5.23746 12.34659,5.82218 25.25767,-0.66636 14.85567,-7.4658 24.07609,-5.7527 28.29675,0.38181 7.90705,11.49251 5.00349,27.59249 -4.11057,35.59473 -4.5036,3.9542 -6.79944,3.76859 -22.782,-1.39949 -14.65064,-4.73739 -26.95194,-6.77032 -30.46796,0.49281 -2.20587,4.55672 -0.35222,16.72235 3.77999,29.77682 4.20682,13.29018 3.58766,16.01049 1.0493,19.73462 -3.56191,5.22588 -5.37218,7.76061 -14.88033,7.70094 -3.75243,-0.0236 -7.46742,-0.0889 -9.87606,-0.86764 z"
       id="path4105"
       inkscape:connector-curvature="0"
       sodipodi:nodetypes="csssscccssssssssssssssssccc" />
    <path
       style="opacity:0.50442475;fill:#008000;fill-opacity:1;stroke:none"
       d="m 495.50176,721.90387 c -5.16246,-0.64022 -11.13557,-1.89511 -13.7866,-5.87879 -7.01148,-10.5361 -8.14398,-22.16511 0.88163,-30.31921 2.89406,-2.6146 5.22519,-4.77961 11.5785,-5.22492 5.68446,-0.39843 8.67151,-1.2762 17.77256,1.47694 l 12.21148,3.69408 0.5622,10.03899 c 0.42455,7.58106 -1.52364,16.69875 -1.51611,20.23606 l 2.5241,0.57385 -8.48093,2.99744 c -9.597,3.39188 -15.25211,3.211 -21.74683,2.40556 z"
       id="path4107"
       inkscape:connector-curvature="0"
       sodipodi:nodetypes="ssssscsscss" />
    <path
       sodipodi:type="arc"
       style="opacity:0.50442475;fill:#0000ff;fill-opacity:1;stroke:#000000;stroke-width:1;stroke-miterlimit:4;stroke-opacity:1;stroke-dasharray:none"
       id="path4109"
       sodipodi:cx="502.34375"
       sodipodi:cy="757.83093"
       sodipodi:rx="17.96875"
       sodipodi:ry="17.96875"
       d="m 520.3125,757.83093 c 0,9.92387 -8.04488,17.96875 -17.96875,17.96875 -9.92387,0 -17.96875,-8.04488 -17.96875,-17.96875 0,-9.92386 8.04488,-17.96875 17.96875,-17.96875 9.92387,0 17.96875,8.04489 17.96875,17.96875 z"
       transform="translate(-1.5625,-5.90625)" />
    <path
       style="opacity:0.55263157;fill:#ffff00;fill-opacity:1;stroke:#000000;stroke-width:0.78125;stroke-miterlimit:4;stroke-opacity:1;stroke-dasharray:none"
       d="m 492.91017,628.25919 c -6.20317,-2.11379 -11.07273,-6.34913 -12.40237,-10.78706 -1.14872,-3.83408 0.0392,-9.82136 4.08614,-20.5956 4.47355,-11.90987 5.22007,-17.15778 3.61214,-25.393 -0.70975,-3.63511 -2.3361,-10.47649 -3.61411,-15.20305 -3.7227,-13.76795 -3.0801,-20.21992 2.50198,-25.12105 9.09067,-7.98172 25.91109,-5.99795 30.91246,3.64576 1.59835,3.08195 1.76908,4.26333 1.40999,9.75654 -0.25414,3.88777 -1.50564,9.94099 -3.31122,16.01563 -2.54215,8.55273 -2.91111,10.83297 -2.97064,18.35937 -0.0663,8.3794 0.0169,8.80811 3.33578,17.1875 5.25594,13.27013 6.7398,19.4736 5.58223,23.33724 -2.74478,9.16125 -16.17627,13.21605 -29.14238,8.79772 z"
       id="path4131"
       inkscape:connector-curvature="0" />
    <text
       xml:space="preserve"
       style="font-size:40px;font-style:normal;font-weight:normal;line-height:128.99999619%;letter-spacing:0px;word-spacing:0px;fill:#000000;fill-opacity:1;stroke:none;font-family:Sans"
       x="140.58255"
       y="810.10834"
       id="text3187"
       sodipodi:linespacing="129%"><tspan
         sodipodi:role="line"
         id="tspan3189"
         x="140.58255"
         y="810.10834" /></text>
  </g>
  <g
     inkscape:groupmode="layer"
     id="layer2"
     inkscape:label="zaznaczenie"
     style="display:inline"
     transform="translate(-50,-524.66952)"
     sodipodi:insensitive="true">
    <path
       style="fill:none;stroke:#000000;stroke-width:1px;stroke-linecap:butt;stroke-linejoin:miter;stroke-opacity:1"
       d="m 103.125,682.04968 c 0,0 23.40584,7.29827 30.46875,0 11.05305,-11.42138 -12.48798,-36.11279 -1.5625,-47.65625 8.05744,-8.5132 26.71531,-8.91435 35.15625,-0.78125 12.56592,12.10765 -11.92848,40.38714 0.78125,52.34375 12.34208,11.61075 38.65132,-14.17596 50.78125,-2.34375 8.76353,8.54844 8.09379,28.28615 -0.78125,36.71875 -12.65443,12.02358 -39.99801,-13.90283 -52.34375,-1.5625 -12.52984,12.52435 14.04451,40.55298 1.5625,53.125 -8.25862,8.31817 -27.08825,7.72194 -35.15625,-0.78125 -11.83557,-12.474 13.82613,-39.50909 1.5625,-51.5625 -7.80939,-7.67552 -32.8125,1.5625 -32.8125,1.5625"
       id="path3216"
       inkscape:connector-curvature="0"
       sodipodi:nodetypes="caaaaaaaaaac" />
    <path
       style="fill:none;stroke:#000000;stroke-width:1px;stroke-linecap:butt;stroke-linejoin:miter;stroke-opacity:1"
       d="m 526.5625,686.73718 c 0,0 -32.23296,-12.66302 -42.96875,-3.125 -8.57485,7.61817 -9.69492,26.28622 -1.5625,34.375 10.90766,10.84913 46.09375,-2.34375 46.09375,-2.34375"
       id="path3218"
       inkscape:connector-curvature="0"
       sodipodi:nodetypes="caac" />
    <path
       style="fill:none;stroke:#000000;stroke-width:1px;stroke-linecap:butt;stroke-linejoin:miter;stroke-opacity:1"
       d="m 485.15625,531.26843 c 7.03131,-7.68995 24.01756,-8.28236 31.25,-0.78125 11.77127,12.20854 -3.95474,33.84246 -3.125,50.78125 0.72266,14.75278 16.95033,32.80566 7.03125,43.75 -8.58528,9.47267 -30.21671,7.57602 -38.28125,-2.34375 -9.13019,-11.23058 5.6711,-28.50669 6.25,-42.96875 0.64712,-16.16645 -14.04278,-36.49702 -3.125,-48.4375 z"
       id="path4111"
       inkscape:connector-curvature="0"
       sodipodi:nodetypes="aaaaaaa" />
  </g>
  <g
     inkscape:label="Layer 1"
     inkscape:groupmode="layer"
     id="layer1"
     style="display:inline"
     transform="translate(-50,-524.66952)"
     sodipodi:insensitive="true">
    <path
       style="fill:none;stroke:#000000;stroke-width:0.75852835px;stroke-linecap:butt;stroke-linejoin:miter;stroke-opacity:1"
       d="m 150.5,552.60219 0,199.38073"
       id="path2989"
       inkscape:connector-curvature="0" />
    <path
       style="fill:none;stroke:#000000;stroke-width:0.75852835px;stroke-linecap:butt;stroke-linejoin:miter;stroke-opacity:1"
       d="m 200.5,552.60219 0,199.38073"
       id="path2989-1"
       inkscape:connector-curvature="0" />
    <path
       style="fill:none;stroke:#000000;stroke-width:0.75861162px;stroke-linecap:butt;stroke-linejoin:miter;stroke-opacity:1"
       d="m 250.5,552.55838 0,199.4245"
       id="path2989-7"
       inkscape:connector-curvature="0" />
    <path
       style="fill:none;stroke:#000000;stroke-width:0.75861162px;stroke-linecap:butt;stroke-linejoin:miter;stroke-opacity:1"
       d="m 300.5,552.55838 0,199.4245"
       id="path2989-1-4"
       inkscape:connector-curvature="0" />
    <path
       style="fill:none;stroke:#000000;stroke-width:0.75861162px;stroke-linecap:butt;stroke-linejoin:miter;stroke-opacity:1"
       d="m 350.5,552.55838 0,199.4245"
       id="path2989-0"
       inkscape:connector-curvature="0" />
    <path
       style="fill:none;stroke:#000000;stroke-width:0.75861162px;stroke-linecap:butt;stroke-linejoin:miter;stroke-opacity:1"
       d="m 400.5,552.55838 0,199.4245"
       id="path2989-1-9"
       inkscape:connector-curvature="0" />
    <path
       style="fill:none;stroke:#000000;stroke-width:0.75861162px;stroke-linecap:butt;stroke-linejoin:miter;stroke-opacity:1"
       d="m 450.5,552.55838 0,199.4245"
       id="path2989-7-4"
       inkscape:connector-curvature="0" />
    <path
       style="fill:none;stroke:#000000;stroke-width:0.75861162px;stroke-linecap:butt;stroke-linejoin:miter;stroke-opacity:1"
       d="m 500.5,552.55838 0,199.4245"
       id="path2989-1-4-8"
       inkscape:connector-curvature="0" />
    <path
       style="fill:none;stroke:#000000;stroke-width:0.88555288px;stroke-linecap:butt;stroke-linejoin:miter;stroke-opacity:1"
       d="m 150.3921,551.86218 c 348.60314,0 349.2158,0 349.2158,0"
       id="path3068-2"
       inkscape:connector-curvature="0" />
    <path
       style="fill:none;stroke:#000000;stroke-width:0.88555288px;stroke-linecap:butt;stroke-linejoin:miter;stroke-opacity:1"
       d="m 150.3921,601.86218 c 348.60314,0 349.2158,0 349.2158,0"
       id="path3068-8-4"
       inkscape:connector-curvature="0" />
    <path
       style="fill:none;stroke:#000000;stroke-width:0.88555288px;stroke-linecap:butt;stroke-linejoin:miter;stroke-opacity:1"
       d="m 153.12647,651.86218 c 348.60314,0 349.2158,0 349.2158,0"
       id="path3068-5"
       inkscape:connector-curvature="0" />
    <path
       style="fill:none;stroke:#000000;stroke-width:0.88555288px;stroke-linecap:butt;stroke-linejoin:miter;stroke-opacity:1"
       d="m 153.90772,701.86218 c 348.60314,0 349.2158,0 349.2158,0"
       id="path3068-8-5"
       inkscape:connector-curvature="0" />
    <path
       style="fill:none;stroke:#000000;stroke-width:0.88555288px;stroke-linecap:butt;stroke-linejoin:miter;stroke-opacity:1"
       d="m 150.3921,751.86218 c 348.60314,0 349.2158,0 349.2158,0"
       id="path3068-2-1"
       inkscape:connector-curvature="0" />
    <path
       sodipodi:type="arc"
       style="fill:#ffffff;fill-opacity:1;stroke:#000000;stroke-width:1.25;stroke-miterlimit:4;stroke-opacity:1;stroke-dasharray:none"
       id="path3136"
       sodipodi:cx="42.96875"
       sodipodi:cy="400.01843"
       sodipodi:rx="5.46875"
       sodipodi:ry="5.46875"
       d="m 48.4375,400.01843 c 0,3.02031 -2.448443,5.46875 -5.46875,5.46875 -3.020307,0 -5.46875,-2.44844 -5.46875,-5.46875 0,-3.0203 2.448443,-5.46875 5.46875,-5.46875 3.020307,0 5.46875,2.44845 5.46875,5.46875 z"
       transform="translate(107.8125,301.5625)" />
    <path
       transform="translate(106.25,351.5625)"
       sodipodi:type="arc"
       style="fill:#ffffff;fill-opacity:1;stroke:#000000;stroke-width:1.25;stroke-miterlimit:4;stroke-opacity:1;stroke-dasharray:none"
       id="path3136-1"
       sodipodi:cx="42.96875"
       sodipodi:cy="400.01843"
       sodipodi:rx="5.46875"
       sodipodi:ry="5.46875"
       d="m 48.4375,400.01843 c 0,3.02031 -2.448443,5.46875 -5.46875,5.46875 -3.020307,0 -5.46875,-2.44844 -5.46875,-5.46875 0,-3.0203 2.448443,-5.46875 5.46875,-5.46875 3.020307,0 5.46875,2.44845 5.46875,5.46875 z" />
    <path
       sodipodi:type="arc"
       style="fill:#ffffff;fill-opacity:1;stroke:#000000;stroke-width:1.25;stroke-miterlimit:4;stroke-opacity:1;stroke-dasharray:none"
       id="path3136-15"
       sodipodi:cx="42.96875"
       sodipodi:cy="400.01843"
       sodipodi:rx="5.46875"
       sodipodi:ry="5.46875"
       d="m 48.4375,400.01843 c 0,3.02031 -2.448443,5.46875 -5.46875,5.46875 -3.020307,0 -5.46875,-2.44844 -5.46875,-5.46875 0,-3.0203 2.448443,-5.46875 5.46875,-5.46875 3.020307,0 5.46875,2.44845 5.46875,5.46875 z"
       transform="translate(107.8125,251.5625)" />
    <path
       sodipodi:type="arc"
       style="fill:#ffffff;fill-opacity:1;stroke:#000000;stroke-width:1.25;stroke-miterlimit:4;stroke-opacity:1;stroke-dasharray:none"
       id="path3136-2"
       sodipodi:cx="42.96875"
       sodipodi:cy="400.01843"
       sodipodi:rx="5.46875"
       sodipodi:ry="5.46875"
       d="m 48.4375,400.01843 c 0,3.02031 -2.448443,5.46875 -5.46875,5.46875 -3.020307,0 -5.46875,-2.44844 -5.46875,-5.46875 0,-3.0203 2.448443,-5.46875 5.46875,-5.46875 3.020307,0 5.46875,2.44845 5.46875,5.46875 z"
       transform="translate(157.03125,300.78125)" />
    <path
       sodipodi:type="arc"
       style="fill:#ffffff;fill-opacity:1;stroke:#000000;stroke-width:1.25;stroke-miterlimit:4;stroke-opacity:1;stroke-dasharray:none"
       id="path3136-7"
       sodipodi:cx="42.96875"
       sodipodi:cy="400.01843"
       sodipodi:rx="5.46875"
       sodipodi:ry="5.46875"
       d="m 48.4375,400.01843 c 0,3.02031 -2.448443,5.46875 -5.46875,5.46875 -3.020307,0 -5.46875,-2.44844 -5.46875,-5.46875 0,-3.0203 2.448443,-5.46875 5.46875,-5.46875 3.020307,0 5.46875,2.44845 5.46875,5.46875 z"
       transform="translate(457.8125,302.34375)" />
    <path
       sodipodi:type="arc"
       style="fill:#ffffff;fill-opacity:1;stroke:#000000;stroke-width:1.25;stroke-miterlimit:4;stroke-opacity:1;stroke-dasharray:none"
       id="path3136-6"
       sodipodi:cx="42.96875"
       sodipodi:cy="400.01843"
       sodipodi:rx="5.46875"
       sodipodi:ry="5.46875"
       d="m 48.4375,400.01843 c 0,3.02031 -2.448443,5.46875 -5.46875,5.46875 -3.020307,0 -5.46875,-2.44844 -5.46875,-5.46875 0,-3.0203 2.448443,-5.46875 5.46875,-5.46875 3.020307,0 5.46875,2.44845 5.46875,5.46875 z"
       transform="translate(457.8125,152.34375)" />
    <path
       sodipodi:type="arc"
       style="fill:#ffffff;fill-opacity:1;stroke:#000000;stroke-width:1.25;stroke-miterlimit:4;stroke-opacity:1;stroke-dasharray:none"
       id="path3136-14"
       sodipodi:cx="42.96875"
       sodipodi:cy="400.01843"
       sodipodi:rx="5.46875"
       sodipodi:ry="5.46875"
       d="m 48.4375,400.01843 c 0,3.02031 -2.448443,5.46875 -5.46875,5.46875 -3.020307,0 -5.46875,-2.44844 -5.46875,-5.46875 0,-3.0203 2.448443,-5.46875 5.46875,-5.46875 3.020307,0 5.46875,2.44845 5.46875,5.46875 z"
       transform="translate(457.03125,201.5625)" />
    <path
       sodipodi:type="arc"
       style="fill:#ffffff;fill-opacity:1;stroke:#000000;stroke-width:1.25;stroke-miterlimit:4;stroke-opacity:1;stroke-dasharray:none"
       id="path3136-23"
       sodipodi:cx="42.96875"
       sodipodi:cy="400.01843"
       sodipodi:rx="5.46875"
       sodipodi:ry="5.46875"
       d="m 48.4375,400.01843 c 0,3.02031 -2.448443,5.46875 -5.46875,5.46875 -3.020307,0 -5.46875,-2.44844 -5.46875,-5.46875 0,-3.0203 2.448443,-5.46875 5.46875,-5.46875 3.020307,0 5.46875,2.44845 5.46875,5.46875 z"
       transform="translate(457.8125,351.5625)" />
  </g>
  <g
     inkscape:groupmode="layer"
     id="layer6"
     inkscape:label="Tło pod napisami">
    <rect
       style="fill:#ffffff;fill-opacity:1;stroke:#000000;stroke-width:1.04718089;stroke-miterlimit:4;stroke-opacity:1;stroke-dasharray:none"
       id="rect3242"
       width="16.211216"
       height="17.525637"
       x="105.52359"
       y="100.64343" />
    <rect
       style="fill:#ffffff;fill-opacity:1;stroke:#000000;stroke-width:1.04718089;stroke-miterlimit:4;stroke-opacity:1;stroke-dasharray:none"
       id="rect3242-2"
       width="16.211216"
       height="17.525637"
       x="105.52359"
       y="150.64343" />
    <rect
       style="fill:#ffffff;fill-opacity:1;stroke:#000000;stroke-width:1.04718089;stroke-miterlimit:4;stroke-opacity:1;stroke-dasharray:none"
       id="rect3242-7"
       width="16.211216"
       height="17.525637"
       x="105.52359"
       y="200.64343" />
    <rect
       style="fill:#ffffff;fill-opacity:1;stroke:#000000;stroke-width:1.20978963;stroke-miterlimit:4;stroke-opacity:1;stroke-dasharray:none"
       id="rect3242-6"
       width="16.211216"
       height="23.391071"
       x="155.60489"
       y="144.69669" />
    <rect
       style="fill:#ffffff;fill-opacity:1;stroke:#000000;stroke-width:1.20978963;stroke-miterlimit:4;stroke-opacity:1;stroke-dasharray:none"
       id="rect3242-6-1"
       width="16.211216"
       height="23.391071"
       x="455.60489"
       y="144.69669" />
  </g>
  <g
     inkscape:groupmode="layer"
     id="layer5"
     inkscape:label="Napisy">
    <text
       xml:space="preserve"
       style="font-size:40px;font-style:normal;font-weight:normal;line-height:125%;letter-spacing:0px;word-spacing:0px;fill:#000000;fill-opacity:1;stroke:none;display:inline;font-family:Sans"
       x="106.87124"
       y="115.7132"
       id="text3055"
       sodipodi:linespacing="125%"><tspan
         sodipodi:role="line"
         id="tspan3057"
         x="106.87124"
         y="115.7132"
         style="font-size:25px">e</tspan></text>
    <text
       xml:space="preserve"
       style="font-size:32px;font-style:normal;font-weight:normal;line-height:125%;letter-spacing:0px;word-spacing:0px;fill:#000000;fill-opacity:1;stroke:none;display:inline;font-family:Sans"
       x="106.63245"
       y="166.13162"
       id="text3059"
       sodipodi:linespacing="125%"><tspan
         sodipodi:role="line"
         id="tspan3061"
         x="106.63245"
         y="166.13162"
         style="font-size:25px">c</tspan></text>
    <text
       xml:space="preserve"
       style="font-size:32px;font-style:normal;font-weight:normal;line-height:125%;letter-spacing:0px;word-spacing:0px;fill:#000000;fill-opacity:1;stroke:none;display:inline;font-family:Sans"
       x="457.22415"
       y="165.07286"
       id="text3063"
       sodipodi:linespacing="125%"><tspan
         sodipodi:role="line"
         id="tspan3065"
         x="457.22415"
         y="165.07286"
         style="font-size:25px">b</tspan></text>
    <text
       xml:space="preserve"
       style="font-size:32px;font-style:normal;font-weight:normal;line-height:125%;letter-spacing:0px;word-spacing:0px;fill:#000000;fill-opacity:1;stroke:none;display:inline;font-family:Sans"
       x="106.94237"
       y="215.94997"
       id="text3067"
       sodipodi:linespacing="125%"><tspan
         sodipodi:role="line"
         id="tspan3069"
         x="106.94237"
         y="215.94997"
         style="font-size:25px">a</tspan></text>
    <text
       xml:space="preserve"
       style="font-size:32px;font-style:normal;font-weight:normal;line-height:125%;letter-spacing:0px;word-spacing:0px;fill:#000000;fill-opacity:1;stroke:none;display:inline;font-family:Sans"
       x="156.80574"
       y="165.26889"
       id="text3071"
       sodipodi:linespacing="125%"><tspan
         sodipodi:role="line"
         id="tspan3073"
         x="156.80574"
         y="165.26889"
         style="font-size:25px">d</tspan></text>
    <text
       xml:space="preserve"
       style="font-size:40px;font-style:normal;font-weight:normal;line-height:125%;letter-spacing:0px;word-spacing:0px;fill:#000000;fill-opacity:1;stroke:none;display:inline;font-family:Sans"
       x="1.5332031"
       y="33.376251"
       id="text3121"
       sodipodi:linespacing="125%"><tspan
         sodipodi:role="line"
         id="tspan3123"
         x="1.5332031"
         y="33.376251"
         style="font-size:20px;font-family:Times New Roman;-inkscape-font-specification:Times New Roman">j = m</tspan></text>
    <text
       xml:space="preserve"
       style="font-size:40px;font-style:normal;font-weight:normal;line-height:125%;letter-spacing:0px;word-spacing:0px;fill:#000000;fill-opacity:1;stroke:none;display:inline;font-family:Sans"
       x="1.5332031"
       y="83.376251"
       id="text3121-9"
       sodipodi:linespacing="125%"><tspan
         sodipodi:role="line"
         id="tspan3123-4"
         x="1.5332031"
         y="83.376251"
         style="font-size:20px;font-family:Times New Roman;-inkscape-font-specification:Times New Roman">j = m-1</tspan></text>
    <text
       xml:space="preserve"
       style="font-size:40px;font-style:normal;font-weight:normal;line-height:125%;letter-spacing:0px;word-spacing:0px;fill:#000000;fill-opacity:1;stroke:none;display:inline;font-family:Sans"
       x="1.5332031"
       y="233.37625"
       id="text3121-8"
       sodipodi:linespacing="125%"><tspan
         sodipodi:role="line"
         id="tspan3123-8"
         x="1.5332031"
         y="233.37625"
         style="font-size:20px;font-family:Times New Roman;-inkscape-font-specification:Times New Roman">j = 0</tspan></text>
    <text
       xml:space="preserve"
       style="font-size:40px;font-style:normal;font-weight:normal;line-height:125%;letter-spacing:0px;word-spacing:0px;fill:#000000;fill-opacity:1;stroke:none;display:inline;font-family:Sans"
       x="1.5332031"
       y="183.37625"
       id="text3121-2"
       sodipodi:linespacing="125%"><tspan
         sodipodi:role="line"
         id="tspan3123-45"
         x="1.5332031"
         y="183.37625"
         style="font-size:20px;font-family:Times New Roman;-inkscape-font-specification:Times New Roman">j = 1</tspan></text>
    <text
       xml:space="preserve"
       style="font-size:40px;font-style:normal;font-weight:normal;line-height:125%;letter-spacing:0px;word-spacing:0px;fill:#000000;fill-opacity:1;stroke:none;display:inline;font-family:Sans"
       x="1.5332031"
       y="133.37625"
       id="text3121-5"
       sodipodi:linespacing="125%"><tspan
         sodipodi:role="line"
         id="tspan3123-1"
         x="1.5332031"
         y="133.37625"
         style="font-size:20px;font-family:Times New Roman;-inkscape-font-specification:Times New Roman">j = 2</tspan></text>
    <text
       xml:space="preserve"
       style="font-size:40px;font-style:normal;font-weight:normal;line-height:20.0000003%;letter-spacing:0px;word-spacing:0px;fill:#000000;fill-opacity:1;stroke:none;display:inline;font-family:Sans"
       x="15.6297"
       y="96.137787"
       id="text3173"
       sodipodi:linespacing="20%"><tspan
         sodipodi:role="line"
         id="tspan3175"
         x="15.6297"
         y="96.137787"
         style="font-size:20px;line-height:20.0000003%">.</tspan><tspan
         sodipodi:role="line"
         x="15.6297"
         y="100.13779"
         id="tspan3177"
         style="font-size:20px;line-height:20.0000003%">.</tspan><tspan
         sodipodi:role="line"
         x="15.6297"
         y="104.13779"
         style="font-size:20px;line-height:20.0000003%"
         id="tspan3179">.</tspan><tspan
         sodipodi:role="line"
         x="15.6297"
         y="108.13779"
         style="font-size:20px;line-height:20.0000003%"
         id="tspan3181">.</tspan><tspan
         sodipodi:role="line"
         x="15.6297"
         y="112.13779"
         style="font-size:20px;line-height:20.0000003%"
         id="tspan3183">.</tspan></text>
    <text
       xml:space="preserve"
       style="font-size:40px;font-style:normal;font-weight:normal;line-height:150%;letter-spacing:0px;word-spacing:0px;fill:#000000;fill-opacity:1;stroke:none;display:inline;font-family:Sans"
       x="79.414063"
       y="273.45828"
       id="text3191"
       sodipodi:linespacing="150%"><tspan
         sodipodi:role="line"
         id="tspan3193"
         x="79.414063"
         y="273.45828"
         style="font-size:20px;font-family:Times New Roman;-inkscape-font-specification:Times New Roman">i = 0</tspan></text>
    <text
       xml:space="preserve"
       style="font-size:40px;font-style:normal;font-weight:normal;line-height:150%;letter-spacing:0px;word-spacing:0px;fill:#000000;fill-opacity:1;stroke:none;display:inline;font-family:Sans"
       x="132.89613"
       y="273.69266"
       id="text3191-7"
       sodipodi:linespacing="150%"><tspan
         sodipodi:role="line"
         id="tspan3193-1"
         x="132.89613"
         y="273.69266"
         style="font-size:20px;font-family:Times New Roman;-inkscape-font-specification:Times New Roman">i = 1</tspan></text>
    <text
       xml:space="preserve"
       style="font-size:40px;font-style:normal;font-weight:normal;line-height:150%;letter-spacing:0px;word-spacing:0px;fill:#000000;fill-opacity:1;stroke:none;display:inline;font-family:Sans"
       x="429.41406"
       y="273.69266"
       id="text3191-7-1"
       sodipodi:linespacing="150%"><tspan
         sodipodi:role="line"
         id="tspan3193-1-5"
         x="429.41406"
         y="273.69266"
         style="font-size:20px;font-family:Times New Roman;-inkscape-font-specification:Times New Roman">i = n-1</tspan></text>
    <text
       xml:space="preserve"
       style="font-size:40px;font-style:normal;font-weight:normal;line-height:150%;letter-spacing:0px;word-spacing:0px;fill:#000000;fill-opacity:1;stroke:none;display:inline;font-family:Sans"
       x="216.31302"
       y="269.09024"
       id="text3237"
       sodipodi:linespacing="150%"><tspan
         sodipodi:role="line"
         id="tspan3239"
         x="216.31302"
         y="269.09024"
         style="font-size:20px">. . . . . . . . . . . . . . . .</tspan></text>
  </g>
</svg>
